<svg id="Слой_1" data-name="Слой 1" xmlns="http://www.w3.org/2000/svg" viewBox="0 0 800 800"><defs><style>.cls-1{fill:#e62c34;}.cls-2{fill:#1d1d1b;}</style></defs><title>TrastGroup Contract_logo_all_workspace</title><path class="cls-1" d="M120.89,370.41h-12V400.9h-8.59V370.41h-12v-7.09h32.58Z"/><path class="cls-2" d="M149.42,373.44a13.24,13.24,0,0,1,5.18,5.21,17.16,17.16,0,0,1,0,15.62,13.28,13.28,0,0,1-5.18,5.2,14.65,14.65,0,0,1-7.33,1.85,11.16,11.16,0,0,1-8.69-3.48v13.47H125V372h8v3.33q3.12-3.77,9.07-3.76A14.76,14.76,0,0,1,149.42,373.44Zm-3.49,18.84a9.23,9.23,0,0,0,0-11.65,7.52,7.52,0,0,0-10.57,0,9.23,9.23,0,0,0,0,11.65,7.52,7.52,0,0,0,10.57,0Z"/><path class="cls-2" d="M183.37,374.78q3.6,3.2,3.6,9.64V400.9h-7.84v-3.6q-2.35,4-8.8,4a13.69,13.69,0,0,1-5.77-1.12,8.56,8.56,0,0,1-3.73-3.12,8.06,8.06,0,0,1-1.29-4.5,7.53,7.53,0,0,1,3-6.34c2-1.54,5.15-2.31,9.37-2.31h6.65a5.33,5.33,0,0,0-1.66-4.21,7.34,7.34,0,0,0-5-1.48,14.72,14.72,0,0,0-4.54.73,11.85,11.85,0,0,0-3.78,2l-3-5.85a18.16,18.16,0,0,1,5.67-2.58,25.27,25.27,0,0,1,6.79-.91Q179.77,371.59,183.37,374.78Zm-7.14,19.92a5.44,5.44,0,0,0,2.36-2.93v-2.95h-5.74q-5.15,0-5.15,3.38a3,3,0,0,0,1.26,2.55,5.64,5.64,0,0,0,3.46.94A7.31,7.31,0,0,0,176.23,394.7Z"/><path class="cls-2" d="M199.71,399.42a14.15,14.15,0,0,1-7.8-13,14.15,14.15,0,0,1,7.8-13,17.8,17.8,0,0,1,8.3-1.9,16.06,16.06,0,0,1,8,1.9,11.32,11.32,0,0,1,5,5.45l-6.49,3.49a7.1,7.1,0,0,0-6.5-4,7.36,7.36,0,0,0-5.42,2.15,9.07,9.07,0,0,0,0,11.7,7.35,7.35,0,0,0,5.42,2.14,7,7,0,0,0,6.5-4l6.49,3.54a11.51,11.51,0,0,1-5,5.37,15.86,15.86,0,0,1-8,1.93A17.8,17.8,0,0,1,199.71,399.42Z"/><path class="cls-2" d="M250.2,378.89h-9.77v22h-8.32v-22h-9.77V372H250.2Z"/><path class="cls-1" d="M281.76,370.41H263.88l.06,30.49H255.3V363.32h26.51Z"/><path class="cls-2" d="M307.93,373.44a13.31,13.31,0,0,1,5.18,5.21,17.24,17.24,0,0,1,0,15.62,13.35,13.35,0,0,1-5.18,5.2,14.68,14.68,0,0,1-7.33,1.85,11.17,11.17,0,0,1-8.7-3.48v13.47h-8.37V372h8v3.33q3.11-3.77,9.07-3.76A14.78,14.78,0,0,1,307.93,373.44Zm-3.49,18.84a9.27,9.27,0,0,0,0-11.65,7.53,7.53,0,0,0-10.58,0,9.27,9.27,0,0,0,0,11.65,7.53,7.53,0,0,0,10.58,0Z"/><path class="cls-2" d="M349,372l-13,30.65c-1.33,3.32-3,5.67-4.91,7a12,12,0,0,1-7.06,2,14.83,14.83,0,0,1-4.46-.7,9.89,9.89,0,0,1-3.59-1.93l3.06-6a7.12,7.12,0,0,0,2.22,1.34,7,7,0,0,0,2.5.49,4.41,4.41,0,0,0,2.79-.84,6.92,6.92,0,0,0,1.93-2.76l.11-.27L316,372h8.65l8.1,19.59L340.91,372Z"/><path class="cls-2" d="M381.7,372V400.9h-8.37v-22h-12v22H353V372Z"/><path class="cls-2" d="M418.47,372V400.9H410.1v-22h-12v22h-8.32V372Z"/><path class="cls-1" d="M456.9,385.76h-6V400.9h-8.64V363.32h8.64v15.19h6.23L467,363.32h9.18l-12.29,18.14,12.67,19.44h-9.88Z"/><path class="cls-2" d="M484.89,399.42a14.16,14.16,0,0,1-5.66-5.29,15.46,15.46,0,0,1,0-15.35,14.23,14.23,0,0,1,5.66-5.29,17.35,17.35,0,0,1,8.19-1.9,17.17,17.17,0,0,1,8.16,1.9,14.21,14.21,0,0,1,5.63,5.29,15.46,15.46,0,0,1,0,15.35,14.14,14.14,0,0,1-5.63,5.29,17.17,17.17,0,0,1-8.16,1.9A17.35,17.35,0,0,1,484.89,399.42Zm13.48-7.14a9.27,9.27,0,0,0,0-11.65,7.56,7.56,0,0,0-10.6,0,9.13,9.13,0,0,0,0,11.65,7.56,7.56,0,0,0,10.6,0Z"/><path class="cls-2" d="M514.66,372H523v11.27h12.56V372h8.37V400.9h-8.37V390.11H523V400.9h-8.32Z"/><path class="cls-2" d="M576.17,378.89H566.4v22h-8.32v-22h-9.77V372h27.86Z"/><path class="cls-2" d="M605,373.44a13.31,13.31,0,0,1,5.18,5.21,17.24,17.24,0,0,1,0,15.62,13.35,13.35,0,0,1-5.18,5.2,14.68,14.68,0,0,1-7.33,1.85,11.17,11.17,0,0,1-8.7-3.48v13.47h-8.37V372h8v3.33q3.1-3.77,9.07-3.76A14.78,14.78,0,0,1,605,373.44Zm-3.49,18.84a9.27,9.27,0,0,0,0-11.65,7.53,7.53,0,0,0-10.58,0,9.27,9.27,0,0,0,0,11.65,7.53,7.53,0,0,0,10.58,0Z"/><path class="cls-2" d="M638.92,374.78q3.58,3.2,3.59,9.64V400.9h-7.83v-3.6q-2.37,4-8.81,4a13.69,13.69,0,0,1-5.77-1.12,8.56,8.56,0,0,1-3.73-3.12,8.06,8.06,0,0,1-1.29-4.5,7.54,7.54,0,0,1,3-6.34q3-2.31,9.36-2.31h6.66a5.36,5.36,0,0,0-1.66-4.21,7.37,7.37,0,0,0-5-1.48A14.61,14.61,0,0,0,623,379a11.8,11.8,0,0,0-3.79,2l-3-5.85a18.11,18.11,0,0,1,5.66-2.58,25.27,25.27,0,0,1,6.79-.91Q635.32,371.59,638.92,374.78Zm-7.14,19.92a5.48,5.48,0,0,0,2.36-2.93v-2.95H628.4q-5.16,0-5.16,3.38a3,3,0,0,0,1.26,2.55,5.69,5.69,0,0,0,3.47.94A7.31,7.31,0,0,0,631.78,394.7Z"/><path class="cls-2" d="M662.53,390h-4.34V400.9h-8.38V372h8.38v11.22h4.5L670.53,372h8.91l-10.09,13.85,10.79,15h-9.88Z"/><path class="cls-2" d="M708.27,378.89H698.5v22h-8.32v-22h-9.77V372h27.86Z"/><path class="cls-2" d="M399.91,337.88h-7.47V273.11H206.09v64.77h-7.47v-68.5a3.73,3.73,0,0,1,3.74-3.74H396.17a3.74,3.74,0,0,1,3.74,3.74Z"/><path class="cls-1" d="M495,339.85h-7.47v-118H301.13v118h-7.47V218.07a3.74,3.74,0,0,1,3.74-3.74H491.21a3.75,3.75,0,0,1,3.74,3.74Z"/><path class="cls-2" d="M581,337.88h-7.47V303.63H394.3v-7.47h183a3.73,3.73,0,0,1,3.73,3.73Z"/><path class="cls-1" d="M485.78,518.56H200.49a3.75,3.75,0,0,1-3.74-3.74V470.46h7.47v40.62H482.05V470.46h7.47v44.36A3.75,3.75,0,0,1,485.78,518.56Z"/><path class="cls-2" d="M577.26,559.81h-278a4,4,0,0,1-3.95-3.95V474.33h7.91V551.9H573.3V474.33h7.91v81.53A4,4,0,0,1,577.26,559.81Z"/><path class="cls-2" d="M214.55,438a8.85,8.85,0,0,1-.83,3.81,6.62,6.62,0,0,1-2.3,2.74,5.55,5.55,0,0,1-3.14,1,5.72,5.72,0,0,1-4.38-2.11,8.73,8.73,0,0,1,0-10.85,5.74,5.74,0,0,1,4.38-2.1,5.49,5.49,0,0,1,3.14,1,6.64,6.64,0,0,1,2.29,2.73A8.69,8.69,0,0,1,214.55,438Zm-1,0a7.46,7.46,0,0,0-1.46-4.51,4.47,4.47,0,0,0-3.77-2,4.61,4.61,0,0,0-3.7,1.9A7.06,7.06,0,0,0,203,438a6.81,6.81,0,0,0,1.61,4.68,4.77,4.77,0,0,0,3.63,1.82,4.47,4.47,0,0,0,3.77-2A7.46,7.46,0,0,0,213.51,438Z"/><path class="cls-2" d="M223.82,435.52v8.54h2.67c.47,0,.7.17.7.51s-.23.51-.7.51h-6.37c-.46,0-.7-.17-.7-.51s.24-.51.7-.51h2.67v-8.54h-3.94v3.56c0,.46-.17.69-.52.69s-.51-.23-.51-.69v-4.6h11v4.6q0,.69-.51.69c-.35,0-.53-.23-.53-.69v-3.56Z"/><path class="cls-2" d="M258.81,445.08H248v1.82c0,.51-.18.77-.53.77s-.5-.27-.5-.82v-2c0-.42,0-.67.15-.74a1.11,1.11,0,0,1,.49-.13,4.29,4.29,0,0,0,2-.86c.78-.54,1.17-1.63,1.17-3.28v-4.37h-1.35q-.87,0-.87-.51c0-.35.29-.53.87-.53H259c.57,0,.86.18.86.53s-.29.51-.86.51h-1v8.54h1a1.08,1.08,0,0,1,.7.14c.11.09.16.33.16.7v2c0,.55-.17.82-.51.82s-.52-.26-.52-.77Zm-6.95-9.56v4.37c0,2-.57,3.41-1.73,4.17h6.79v-8.54Z"/><path class="cls-2" d="M274.21,439.81a5.45,5.45,0,0,1-1.68,4,5.79,5.79,0,0,1-8.14,0,5.65,5.65,0,0,1,0-8,5.79,5.79,0,0,1,8.14,0A5.46,5.46,0,0,1,274.21,439.81Zm-1,0a4.5,4.5,0,0,0-1.37-3.3,4.62,4.62,0,0,0-3.34-1.36,4.57,4.57,0,0,0-3.34,1.37,4.6,4.6,0,0,0,0,6.57,4.76,4.76,0,0,0,6.68,0A4.47,4.47,0,0,0,273.17,439.81Z"/><path class="cls-2" d="M279.56,444.06v-8.54h-1.38c-.46,0-.68-.17-.68-.51s.22-.53.68-.53h5.59q4.17,0,4.17,2.65c0,1.1-.72,1.8-2.15,2.11q3.24.43,3.24,2.82c0,2-1.35,3-4,3h-6.81c-.46,0-.68-.17-.68-.51s.22-.51.68-.51Zm1-5.28h2.76c2.38,0,3.56-.57,3.56-1.72a1.29,1.29,0,0,0-.6-1.13,5.12,5.12,0,0,0-2.53-.41h-3.19Zm0,5.28h4.31c2.06,0,3.09-.66,3.09-2a2,2,0,0,0-.78-1.61c-.53-.44-1.79-.65-3.8-.65h-2.82Z"/><path class="cls-2" d="M304.13,440H293.65a5,5,0,0,0,1.67,3.21,5.1,5.1,0,0,0,3.47,1.22,8.44,8.44,0,0,0,2.41-.38,6.28,6.28,0,0,0,2.06-1,.68.68,0,0,1,.41-.19.44.44,0,0,1,.34.16.49.49,0,0,1,.15.36.57.57,0,0,1-.2.4,5.54,5.54,0,0,1-2.09,1.15,9.24,9.24,0,0,1-3.08.53,6.07,6.07,0,0,1-4.41-1.73,5.67,5.67,0,0,1-1.77-4.2,5.14,5.14,0,0,1,1.66-3.84,5.66,5.66,0,0,1,4.11-1.61,5.59,5.59,0,0,1,4.15,1.65A5.74,5.74,0,0,1,304.13,440Zm-1-1a4.45,4.45,0,0,0-1.61-2.77,5,5,0,0,0-6.2,0,4.48,4.48,0,0,0-1.62,2.78Z"/><path class="cls-2" d="M309.74,434.48v1.87a6.58,6.58,0,0,1,2-1.67,5.14,5.14,0,0,1,2.49-.57,5.71,5.71,0,0,1,2.8.71,5.05,5.05,0,0,1,2,2,5.41,5.41,0,0,1,.71,2.66,5.12,5.12,0,0,1-1.59,3.79,5.59,5.59,0,0,1-8.37-.66v6.19h2.5a.84.84,0,0,1,.53.14.5.5,0,0,1,.15.38.51.51,0,0,1-.15.37.84.84,0,0,1-.53.14h-4.91a.77.77,0,0,1-.53-.14.46.46,0,0,1-.16-.37.48.48,0,0,1,.16-.38.82.82,0,0,1,.53-.14h1.38V435.52h-1.38a.76.76,0,0,1-.53-.15.46.46,0,0,1-.16-.38.45.45,0,0,1,.16-.36.76.76,0,0,1,.53-.15Zm8.92,5a4.13,4.13,0,0,0-1.3-3,4.55,4.55,0,0,0-6.32,0,4.2,4.2,0,0,0,0,6.08,4.55,4.55,0,0,0,6.32,0A4.14,4.14,0,0,0,318.66,439.46Z"/><path class="cls-2" d="M325,445.08h-2.45q-.69,0-.69-.51t.69-.51h1.23v-8.54h-1.23q-.69,0-.69-.51c0-.35.23-.53.69-.53h3.65c.45,0,.68.18.68.53s-.23.51-.68.51H324.8v8.08l7.41-9.12h2.59c.45,0,.68.18.68.53s-.23.51-.68.51h-1.39v8.54h1.39c.45,0,.68.17.68.51s-.23.51-.68.51H331q-.69,0-.69-.51t.69-.51h1.38V436Z"/><path class="cls-2" d="M346.78,440.84h-3c-2.36,1-3.7,2.38-4,4.24h-1.42q-.57,0-.57-.51t.57-.51H339a5.86,5.86,0,0,1,3.44-3.44c-1.9-.4-2.84-1.45-2.84-3.14a2.84,2.84,0,0,1,.88-2.16,3.94,3.94,0,0,1,2.77-.84h5.68c.38,0,.57.18.57.53s-.19.51-.57.51h-1.1v8.54h1.1q.57,0,.57.51t-.57.51h-3.65c-.39,0-.58-.17-.58-.51s.19-.51.58-.51h1.5Zm0-1v-4.29h-3.31c-1.89,0-2.83.67-2.83,2a2,2,0,0,0,.76,1.72,5.06,5.06,0,0,0,2.86.57Z"/><path class="cls-2" d="M380.83,438.42h-14a.79.79,0,0,1-.52-.14.47.47,0,0,1-.16-.37.48.48,0,0,1,.16-.38.73.73,0,0,1,.52-.15h14a.78.78,0,0,1,.53.15.51.51,0,0,1,.16.38.51.51,0,0,1-.16.37A.84.84,0,0,1,380.83,438.42Z"/><path class="cls-2" d="M408.81,435.52a2.75,2.75,0,0,0-1.35.26,8.43,8.43,0,0,0-1.45,1.53,9.69,9.69,0,0,1-2,2,3.91,3.91,0,0,1,1.09.47,7.74,7.74,0,0,1,1.59,1.85l1.71,2.44h1.45c.57,0,.86.17.86.51s-.29.51-.86.51h-1.45a.93.93,0,0,1-.83-.31.94.94,0,0,0-.12-.2L405.75,442a4.63,4.63,0,0,0-1.76-1.7,5.51,5.51,0,0,0-2.22-.4H401v4.16h1.25c.57,0,.86.17.86.51s-.29.51-.86.51h-3.54c-.57,0-.86-.17-.86-.51s.29-.51.86-.51H400v-8.54h-1.25c-.57,0-.86-.17-.86-.51s.29-.53.86-.53h3.54c.57,0,.86.18.86.53s-.29.51-.86.51H401v3.36h.76a3.12,3.12,0,0,0,1.52-.3,5.77,5.77,0,0,0,1.39-1.36,14.23,14.23,0,0,1,2.17-2.29,3.55,3.55,0,0,1,2-.45,1.46,1.46,0,0,1,.81.15c.13.09.19.34.19.72v1.41c0,.49-.18.73-.53.73s-.5-.21-.5-.65Z"/><path class="cls-2" d="M430.14,434.48v1.87a6.61,6.61,0,0,1,2-1.67,5.13,5.13,0,0,1,2.48-.57,5.78,5.78,0,0,1,2.81.71,5.12,5.12,0,0,1,2,2,5.4,5.4,0,0,1,.7,2.66,5.12,5.12,0,0,1-1.59,3.79,5.3,5.3,0,0,1-3.9,1.58,5.4,5.4,0,0,1-4.47-2.24v6.19h2.5a.82.82,0,0,1,.53.14.48.48,0,0,1,.16.38.49.49,0,0,1-.16.37.82.82,0,0,1-.53.14h-4.91a.74.74,0,0,1-.52-.14.46.46,0,0,1-.16-.37.48.48,0,0,1,.16-.38.79.79,0,0,1,.52-.14h1.39V435.52h-1.39a.73.73,0,0,1-.52-.15.46.46,0,0,1-.16-.38.45.45,0,0,1,.16-.36.73.73,0,0,1,.52-.15Zm8.92,5a4.12,4.12,0,0,0-1.29-3,4.57,4.57,0,0,0-6.33,0,4.2,4.2,0,0,0,0,6.08,4.55,4.55,0,0,0,6.32,0A4.11,4.11,0,0,0,439.06,439.46Z"/><path class="cls-2" d="M454.64,440H444.15a5,5,0,0,0,1.68,3.21,5.1,5.1,0,0,0,3.47,1.22,8.49,8.49,0,0,0,2.41-.38,6.28,6.28,0,0,0,2.06-1,.66.66,0,0,1,.4-.19.43.43,0,0,1,.34.16.49.49,0,0,1,.15.36.56.56,0,0,1-.19.4,5.62,5.62,0,0,1-2.09,1.15,9.28,9.28,0,0,1-3.08.53,6.08,6.08,0,0,1-4.42-1.73,5.67,5.67,0,0,1-1.77-4.2,5.18,5.18,0,0,1,1.66-3.84,5.7,5.7,0,0,1,4.11-1.61,5.58,5.58,0,0,1,4.15,1.65A5.74,5.74,0,0,1,454.64,440Zm-1-1a4.54,4.54,0,0,0-1.61-2.77,5.06,5.06,0,0,0-6.21,0,4.51,4.51,0,0,0-1.61,2.78Z"/><path class="cls-2" d="M467.18,439.48l.74.17a2.7,2.7,0,0,1,1.45.89,2.39,2.39,0,0,1,.62,1.64,2.78,2.78,0,0,1-1.33,2.38,7.66,7.66,0,0,1-4.3.93,14.61,14.61,0,0,1-4-.57c-1.35-.38-2-.78-2-1.21a.54.54,0,0,1,.17-.39.52.52,0,0,1,.34-.17,1,1,0,0,1,.43.13,11.43,11.43,0,0,0,5.16,1.18,6.73,6.73,0,0,0,3.31-.64,1.89,1.89,0,0,0,1.11-1.64,1.67,1.67,0,0,0-1.28-1.6,14.46,14.46,0,0,0-4.42-.47h-.67c-.57,0-.86-.16-.86-.47s.29-.57.86-.57h.67q5.18,0,5.17-2a1.54,1.54,0,0,0-1-1.37,6.77,6.77,0,0,0-2.95-.51q-3.75,0-4.34,2.43-.17.66-.54.66c-.3,0-.46-.18-.46-.54V435c0-.58.17-.88.51-.88s.52.3.52.88v.78a6,6,0,0,1,4.56-1.66,7,7,0,0,1,3.48.77,2.36,2.36,0,0,1,1.34,2.13C469.45,438.17,468.69,439,467.18,439.48Z"/><path class="cls-2" d="M475,435.52l4.34,7.89,4.31-7.89h-.9c-.57,0-.86-.17-.86-.51s.29-.53.86-.53h2.63c.57,0,.86.18.86.53s-.29.51-.86.51h-.57l-6,10.89a6.14,6.14,0,0,1-1.43,1.89,2.49,2.49,0,0,1-1.55.53,4.82,4.82,0,0,1-1.19-.13,1.48,1.48,0,0,1-.69-.31,1.11,1.11,0,0,1-.17-.72v-1.42c0-.56.17-.83.52-.83s.51.25.51.77v1.5a3.23,3.23,0,0,0,.84.11,1.85,1.85,0,0,0,1.19-.35,5.5,5.5,0,0,0,1.07-1.51l.78-1.43-4.91-9h-.61c-.57,0-.86-.17-.86-.51s.29-.53.86-.53H476c.57,0,.86.18.86.53s-.29.51-.86.51Z"/><path class="cls-2" d="M498.76,435.52v8.54h1c.57,0,.86.17.86.51s-.29.51-.86.51h-3.08c-.57,0-.85-.17-.85-.51s.28-.51.85-.51h1v-8.54h-5.06v5.92a4.31,4.31,0,0,1-.93,3.09,3.2,3.2,0,0,1-2.41,1,4.81,4.81,0,0,1-1.2-.15,1.37,1.37,0,0,1-.7-.31,1.39,1.39,0,0,1-.11-.67v-1c0-.52.19-.78.55-.78s.48.24.48.71v1a4.36,4.36,0,0,0,1,.13c1.52,0,2.28-1,2.28-3v-5.92h-1.34c-.58,0-.86-.17-.86-.51s.28-.53.86-.53h9.5c.57,0,.86.18.86.53s-.29.51-.86.51Z"/><path class="cls-2" d="M506.09,435.52V439h3.08q4.76,0,4.75,2.91a3.38,3.38,0,0,1-.8,2.22c-.54.64-1.85,1-3.95,1h-4.7q-.69,0-.69-.51t.69-.51h.6v-8.54h-.55c-.47,0-.7-.17-.7-.51s.23-.53.7-.53h3c.46,0,.68.18.68.53s-.22.51-.68.51Zm0,8.54h3a5.53,5.53,0,0,0,3-.55,1.85,1.85,0,0,0,.71-1.56,1.49,1.49,0,0,0-.93-1.54,7.85,7.85,0,0,0-2.85-.38h-3Z"/><path class="cls-2" d="M524.83,435.52v8.54h2.67c.47,0,.7.17.7.51s-.23.51-.7.51h-6.37q-.69,0-.69-.51t.69-.51h2.67v-8.54h-3.94v3.56q0,.69-.51.69c-.35,0-.52-.23-.52-.69v-4.6h11v4.6c0,.46-.18.69-.52.69s-.53-.23-.53-.69v-3.56Z"/><path class="cls-2" d="M542.33,445.08V443.6a7.3,7.3,0,0,1-4.79,1.89,4.16,4.16,0,0,1-2.89-.94,3,3,0,0,1-1-2.29,3.29,3.29,0,0,1,1.37-2.61,6.2,6.2,0,0,1,4-1.12,12.27,12.27,0,0,1,1.54.1c.56.06,1.16.15,1.8.28v-1.66a1.82,1.82,0,0,0-.78-1.47,3.72,3.72,0,0,0-2.35-.63,12.09,12.09,0,0,0-3.37.7,2.41,2.41,0,0,1-.5.12.48.48,0,0,1-.34-.14.53.53,0,0,1-.14-.37.45.45,0,0,1,.12-.33,4.34,4.34,0,0,1,1.39-.5,11.85,11.85,0,0,1,2.89-.52,4.42,4.42,0,0,1,3,1,2.85,2.85,0,0,1,1.09,2.18v6.81h1.37a.76.76,0,0,1,.54.14.46.46,0,0,1,.16.37.47.47,0,0,1-.16.37.76.76,0,0,1-.54.14Zm0-5.11a10.1,10.1,0,0,0-1.53-.31,13.28,13.28,0,0,0-1.7-.1,5.58,5.58,0,0,0-3.5,1,2.12,2.12,0,0,0-1,1.73,2,2,0,0,0,.73,1.56,3.09,3.09,0,0,0,2.12.64,5.87,5.87,0,0,0,2.48-.53,8.9,8.9,0,0,0,2.36-1.7Z"/><path class="cls-2" d="M554.93,435.52v8.54h2.67c.47,0,.7.17.7.51s-.23.51-.7.51h-6.37q-.69,0-.69-.51t.69-.51h2.67v-8.54H550v3.56q0,.69-.51.69c-.35,0-.52-.23-.52-.69v-4.6h11v4.6c0,.46-.17.69-.52.69s-.52-.23-.52-.69v-3.56Z"/><path class="cls-2" d="M565.33,435.52l4.35,7.89,4.31-7.89h-.91c-.57,0-.86-.17-.86-.51s.29-.53.86-.53h2.63c.58,0,.86.18.86.53s-.28.51-.86.51h-.57l-5.95,10.89a6.3,6.3,0,0,1-1.44,1.89,2.47,2.47,0,0,1-1.55.53,4.68,4.68,0,0,1-1.18-.13,1.38,1.38,0,0,1-.69-.31,1,1,0,0,1-.18-.72v-1.42c0-.56.18-.83.52-.83s.51.25.51.77v1.5a3.31,3.31,0,0,0,.85.11,1.82,1.82,0,0,0,1.18-.35,5.29,5.29,0,0,0,1.07-1.51l.78-1.43-4.91-9h-.61c-.57,0-.86-.17-.86-.51s.29-.53.86-.53h2.73c.57,0,.86.18.86.53s-.29.51-.86.51Z"/></svg>